<svg xmlns="http://www.w3.org/2000/svg" viewBox="0 0 550.5 552.04"><title>Recurso 1</title><g id="Capa_2" data-name="Capa 2"><g id="Capa_1-2" data-name="Capa 1"><path d="M550.5,298.06V254l-19.07-15.06q-1.63-11.52-4.25-22.69l12.19-21-16.12-41-23.12-6.95a259,259,0,0,0-17.56-26.84l2.86-24L454.34,65.26l-23.9,2.85q-9.31-7-19.25-13.16l-6.12-23.32L364.75,14.07l-21.1,11.39a257.16,257.16,0,0,0-31.57-6.55L297.23,0h-44L238.42,18.91q-11.67,1.66-23,4.36l-20.7-12.11-40.9,16.17-6.89,23.06a258.08,258.08,0,0,0-26.87,17.72l-23.9-2.85L65.08,96.43l2.85,24q-6.95,9.29-13,19.22l-23.34,6.15L14,186.27,25.5,207.63a260,260,0,0,0-6.43,31.29L0,254v44.08l19.15,15.12q1.63,11.42,4.25,22.5L11.13,356.77l16.12,41,23.42,7A259.07,259.07,0,0,0,68,431.19l-2.89,24.42,31.08,31.17,24.41-2.91q9,6.74,18.6,12.68l6.26,23.85L185.75,538l21.65-11.7A254.12,254.12,0,0,0,238,532.62L253.27,552h44l15.25-19.42q11.19-1.62,22.06-4.17l21.24,12.43,40.9-16.17,7.05-23.6a261.84,261.84,0,0,0,26.2-17.24l24.41,2.91,31.09-31.17-2.9-24.42q6.77-9.06,12.74-18.74L519,406.2l17.51-40.43-11.55-21.51a261.38,261.38,0,0,0,6.44-31.08Z"/></g></g></svg>